<svg width="653" height="671" viewBox="0 0 653 671" fill="none" xmlns="http://www.w3.org/2000/svg">
<path fill-rule="evenodd" clip-rule="evenodd" d="M110.379 70.1577C-36.4175 216.954 -36.4174 454.957 110.379 601.753L179.063 670.438V573.728C179.063 440.941 247.917 324.234 351.87 257.364C337.271 188.76 303.326 123.449 250.035 70.1576L180.207 0.329453L110.379 70.1577Z" fill="#F037A5"/>
<path fill-rule="evenodd" clip-rule="evenodd" d="M178.192 667.958V670H276.944C484.545 670 652.839 501.706 652.839 294.105V195.353H554.087C479.274 195.353 409.565 217.209 350.998 254.884C376.613 375.257 342.668 505.768 249.163 599.273L179.335 669.101L178.192 667.958Z" fill="#2D46B9"/>
<path d="M351.478 255.173C377.094 375.547 343.149 506.058 249.644 599.563L179.816 669.391L178.672 668.248V571.538C178.672 438.75 247.526 322.044 351.478 255.173Z" fill="#1E3163"/>
</svg>
